<?xml version="1.0" encoding="UTF-8" standalone="no"?>
<svg viewBox="0 0 1024 1024" width="1024" height="1024" role="img" aria-label="Baseball stats favicon" version="1.1" id="svg7" sodipodi:docname="favicon.svg" inkscape:version="1.4 (e7c3feb1, 2024-10-09)" xmlns:inkscape="http://www.inkscape.org/namespaces/inkscape" xmlns:sodipodi="http://sodipodi.sourceforge.net/DTD/sodipodi-0.dtd" xmlns="http://www.w3.org/2000/svg" xmlns:svg="http://www.w3.org/2000/svg">
  <sodipodi:namedview id="namedview7" pagecolor="#ffffff" bordercolor="#000000" borderopacity="0.25" inkscape:showpageshadow="2" inkscape:pageopacity="0.0" inkscape:pagecheckerboard="0" inkscape:deskcolor="#d1d1d1" showgrid="false" inkscape:zoom="1.2" inkscape:cx="4.1e+02" inkscape:cy="4.1e+02" inkscape:window-width="2560" inkscape:window-height="1387" inkscape:window-x="1440" inkscape:window-y="25" inkscape:window-maximized="1" inkscape:current-layer="svg7" />
  <title id="title1">Baseball Stats</title>
  <defs id="defs1">
    <inkscape:path-effect effect="copy_rotate" starting_point="0,0" origin="-50,250" id="path-effect22" is_visible="true" lpeversion="1.2" lpesatellites="" method="normal" num_copies="7" starting_angle="0" rotation_angle="-8.9" gap="0" copies_to_360="false" mirror_copies="false" split_items="true" link_styles="false" />
    <inkscape:path-effect effect="copy_rotate" starting_point="0,0" origin="650,390" id="path-effect15" is_visible="true" lpeversion="1.2" lpesatellites="" method="normal" num_copies="8" starting_angle="0" rotation_angle="9.1" gap="0" copies_to_360="false" mirror_copies="false" split_items="true" link_styles="false" />
    <inkscape:path-effect effect="copy_rotate" starting_point="0,0" origin="-50,250" id="path-effect8" is_visible="true" lpeversion="1.2" lpesatellites="" method="normal" num_copies="7" starting_angle="0" rotation_angle="-8.7" gap="-0.01" copies_to_360="false" mirror_copies="false" split_items="false" link_styles="false" />
    <!-- Arrow marker for the rising line (auto-orient so it aligns with the path) -->
    <marker id="arrowhead" viewBox="0 0 24 24" refX="12" refY="12" markerWidth="6" markerHeight="6" orient="auto" markerUnits="strokeWidth">
      <path d="M4 12 L16 4 L16 20 Z" stroke="#ffffff" fill="#ffffff" stroke-linecap="round" stroke-linejoin="round" id="path1" />
    </marker>
  </defs>
  <!-- Rounded square background -->
  <rect x="0" y="0" width="1024" height="1024" rx="192" ry="192" fill="#1e88ea" id="rect1" />
  <!-- Baseball (white circle) -->
  <circle cx="300" cy="320" r="200" fill="#ffffff" id="circle1" />
  <!-- <circle cx="-50" cy="250" r="250" fill="none" stroke="#1e88ea" stroke-width="16"  /> -->
  <path id="circle2" style="fill:#1e88ea" d="M 1.9e+02 1.5e+02 A 200 200 0 0 0 1.7e+02 1.6e+02 C 1.8e+02 1.9e+02 190 2.2e+02 190 250 C 190 3.1e+02 1.7e+02 3.7e+02 1.2e+02 4.1e+02 A 200 200 0 0 0 1.3e+02 4.3e+02 C 1.8e+02 3.8e+02 210 3.2e+02 210 250 C 210 2.2e+02 2e+02 1.8e+02 1.9e+02 1.5e+02 z " />
  <circle cx="650" cy="390" r="250" fill="none" stroke="#1e88ea" stroke-width="16" id="circle3" />
  <!-- Baseball seams (stitches) - use background color stroke so they appear stitched) -->
  <!-- Left seam -->
  <!-- Right seam -->
  <!-- Four statistic bars as rects (white) -->
  <!-- layout: baseline at y=820 -->
  <g fill="#ffffff" transform="translate(0,0)" id="g7">
    <!-- bar 1 - smallest -->
    <rect x="264" y="740" width="125" height="140" rx="16" ry="16" id="rect4" />
    <!-- bar 2 -->
    <rect x="428" y="660" width="125" height="220" rx="16" ry="16" id="rect5" />
    <!-- bar 3 -->
    <rect x="592" y="516" width="125" height="364" rx="16" ry="16" id="rect6" />
    <!-- bar 4 - tallest -->
    <rect x="756" y="360" width="125" height="520" rx="16" ry="16" id="rect7" />
  </g>
  <!-- Rising line that connects the bars with an arrowhead at the end -->
  <path
    d="M826 220
       L340 670
       L240 614
       L132 730"
    fill="none"
    stroke="#ffffff"
    stroke-width="50"
    stroke-linecap="round"
    stroke-linejoin="round"
    marker-start="url(#arrowhead)"
    id="path7" />
  <path style="fill:none;fill-opacity:0.5;stroke:#1e88ea;stroke-width:18;stroke-linecap:round;stroke-dasharray:none;stroke-opacity:1" d="m 170,190 h 20 l 20,-10" id="path8" sodipodi:nodetypes="ccc" />
  <path style="fill:none;fill-opacity:0.5;stroke:#1e88ea;stroke-width:18;stroke-linecap:round;stroke-dasharray:none;stroke-opacity:1" d="m 440,220 20,10 10,10" id="path15" sodipodi:nodetypes="ccc" />
  <path style="fill:none;fill-opacity:0.5;stroke:#1e88ea;stroke-width:18;stroke-linecap:round;stroke-dasharray:none;stroke-opacity:1" id="path16" d="m 440,220 20,10 10,10" transform="rotate(-9.1,650,390)" />
  <path style="fill:none;fill-opacity:0.5;stroke:#1e88ea;stroke-width:18;stroke-linecap:round;stroke-dasharray:none;stroke-opacity:1" id="path17" d="m 440,220 20,10 10,10" transform="rotate(-18,650,390)" />
  <path style="fill:none;fill-opacity:0.5;stroke:#1e88ea;stroke-width:18;stroke-linecap:round;stroke-dasharray:none;stroke-opacity:1" id="path18" d="m 440,220 20,10 10,10" transform="rotate(-27,650,390)" />
  <path style="fill:none;fill-opacity:0.5;stroke:#1e88ea;stroke-width:18;stroke-linecap:round;stroke-dasharray:none;stroke-opacity:1" id="path19" d="m 440,220 20,10 10,10" transform="rotate(-36,650,390)" />
  <path style="fill:none;fill-opacity:0.5;stroke:#1e88ea;stroke-width:18;stroke-linecap:round;stroke-dasharray:none;stroke-opacity:1" id="path20" d="m 440,220 20,10 10,10" transform="rotate(-46,650,390)" />
  <path style="fill:none;fill-opacity:0.5;stroke:#1e88ea;stroke-width:18;stroke-linecap:round;stroke-dasharray:none;stroke-opacity:1" id="path21" d="m 440,220 20,10 10,10" transform="rotate(-55,650,390)" />
  <path style="fill:none;fill-opacity:0.5;stroke:#1e88ea;stroke-width:18;stroke-linecap:round;stroke-dasharray:none;stroke-opacity:1" id="path22" d="m 440,220 20,10 10,10" transform="rotate(-64,650,390)" />
  <g inkscape:groupmode="layer" id="layer1" inkscape:label="Temp" style="display:none">
    <path style="fill:none;fill-opacity:0.5;stroke:#1e88ea;stroke-width:18;stroke-linecap:round;stroke-dasharray:none;stroke-opacity:1" d="m 130,390 10,10 20,20" id="path14" sodipodi:nodetypes="ccc" />
    <path style="fill:none;fill-opacity:0.5;stroke:#1e88ea;stroke-width:18;stroke-linecap:round;stroke-dasharray:none;stroke-opacity:1" d="m 150,360 20,10 10,10" id="path13" sodipodi:nodetypes="ccc" />
    <path style="fill:none;fill-opacity:0.5;stroke:#1e88ea;stroke-width:18;stroke-linecap:round;stroke-dasharray:none;stroke-opacity:1" d="m 160,320 20,20 h 30" id="path12" sodipodi:nodetypes="ccc" />
    <path style="fill:none;fill-opacity:0.5;stroke:#1e88ea;stroke-width:18;stroke-linecap:round;stroke-dasharray:none;stroke-opacity:1" d="m 170,290 20,10 h 30" id="path11" sodipodi:nodetypes="ccc" />
    <path style="fill:none;fill-opacity:0.5;stroke:#1e88ea;stroke-width:18;stroke-linecap:round;stroke-dasharray:none;stroke-opacity:1" d="m 180,260 h 20 l 20,-10" id="path10" sodipodi:nodetypes="ccc" />
    <path style="fill:none;fill-opacity:0.5;stroke:#1e88ea;stroke-width:18;stroke-linecap:round;stroke-dasharray:none;stroke-opacity:1" d="m 170,220 30,10 20,-10" id="path9" sodipodi:nodetypes="ccc" />
  </g>
  <path style="fill:none;fill-opacity:0.5;stroke:#1e88ea;stroke-width:18;stroke-linecap:round;stroke-dasharray:none;stroke-opacity:1" id="path23" d="m 170,190 h 20 l 20,-10" transform="rotate(8.9,-50,250)" />
  <path style="fill:none;fill-opacity:0.5;stroke:#1e88ea;stroke-width:18;stroke-linecap:round;stroke-dasharray:none;stroke-opacity:1" id="path24" d="m 170,190 h 20 l 20,-10" transform="rotate(18,-50,250)" />
  <path style="fill:none;fill-opacity:0.5;stroke:#1e88ea;stroke-width:18;stroke-linecap:round;stroke-dasharray:none;stroke-opacity:1" id="path25" d="m 170,190 h 20 l 20,-10" transform="rotate(27,-50,250)" />
  <path style="fill:none;fill-opacity:0.5;stroke:#1e88ea;stroke-width:18;stroke-linecap:round;stroke-dasharray:none;stroke-opacity:1" id="path26" d="m 170,190 h 20 l 20,-10" transform="rotate(36,-50,250)" />
  <path style="fill:none;fill-opacity:0.5;stroke:#1e88ea;stroke-width:18;stroke-linecap:round;stroke-dasharray:none;stroke-opacity:1" id="path27" d="m 170,190 h 20 l 20,-10" transform="rotate(45,-50,250)" />
  <path style="fill:none;fill-opacity:0.5;stroke:#1e88ea;stroke-width:18;stroke-linecap:round;stroke-dasharray:none;stroke-opacity:1" id="path28" d="m 170,190 h 20 l 20,-10" transform="rotate(53,-50,250)" />
</svg>
